<?xml version="1.0" encoding="UTF-8" standalone="no"?>
<svg
   xmlns:dc="http://purl.org/dc/elements/1.1/"
   xmlns:cc="http://creativecommons.org/ns#"
   xmlns:rdf="http://www.w3.org/1999/02/22-rdf-syntax-ns#"
   xmlns:svg="http://www.w3.org/2000/svg"
   xmlns="http://www.w3.org/2000/svg"
   xmlns:sodipodi="http://sodipodi.sourceforge.net/DTD/sodipodi-0.dtd"
   xmlns:inkscape="http://www.inkscape.org/namespaces/inkscape"
   width="128"
   height="128"
   viewBox="0 0 33.866666 33.866669"
   version="1.1"
   id="svg839"
   inkscape:export-filename="/Users/keepcalm/Documents/GIT/simple-strategy-game/images/unit blue.png"
   inkscape:export-xdpi="78.75"
   inkscape:export-ydpi="78.75"
   sodipodi:docname="unit blue.svg"
   inkscape:version="1.0rc1 (09960d6, 2020-04-09)">
  <defs
     id="defs833" />
  <sodipodi:namedview
     id="base"
     pagecolor="#ffffff"
     bordercolor="#666666"
     borderopacity="1.0"
     inkscape:pageopacity="0.0"
     inkscape:pageshadow="2"
     inkscape:zoom="1.7163375"
     inkscape:cx="8.5566125"
     inkscape:cy="78.367503"
     inkscape:document-units="mm"
     inkscape:current-layer="layer1"
     inkscape:document-rotation="0"
     showgrid="false"
     units="px"
     inkscape:window-width="1440"
     inkscape:window-height="803"
     inkscape:window-x="0"
     inkscape:window-y="23"
     inkscape:window-maximized="0"
     inkscape:snap-others="false"
     inkscape:object-nodes="false"
     inkscape:snap-nodes="false"
     inkscape:snap-global="false" />
  <metadata
     id="metadata836">
    <rdf:RDF>
      <cc:Work
         rdf:about="">
        <dc:format>image/svg+xml</dc:format>
        <dc:type
           rdf:resource="http://purl.org/dc/dcmitype/StillImage" />
        <dc:title />
      </cc:Work>
    </rdf:RDF>
  </metadata>
  <g
     inkscape:label="Слой 1"
     inkscape:groupmode="layer"
     id="layer1"
     style="display:inline;opacity:0.8;mix-blend-mode:normal">
    <path
       style="opacity:1;fill:none;stroke:#0000b6;stroke-width:3;stroke-linecap:butt;stroke-linejoin:miter;stroke-miterlimit:4;stroke-dasharray:none;stroke-opacity:1"
       d="m 11.099216,31.097954 c 1.299551,-3.057574 3.031035,-5.915653 4.932984,-8.632724 0.648724,-0.926747 0.616623,-0.423661 0.616623,-0.924935 1.652065,2.238104 3.288389,4.502901 5.087141,6.628699 0.896951,1.060032 2.109133,2.774804 3.699739,2.774804"
       id="path1504"
       inkscape:connector-curvature="0" />
    <path
       style="opacity:1;fill:none;stroke:#0000b6;stroke-width:3;stroke-linecap:butt;stroke-linejoin:miter;stroke-miterlimit:4;stroke-dasharray:none;stroke-opacity:1"
       d="m 16.802979,21.077828 c 1.079091,-2.569263 2.537922,-5.010297 3.237271,-7.707789 0.103969,-0.401022 -0.72778,-0.397054 -1.07909,-0.616623 -0.189082,-0.118176 -0.214477,-0.368632 -0.308311,-0.462467 -0.128464,-0.128463 -0.334005,-0.179849 -0.462468,-0.308312 -0.123525,-0.123525 -0.35118,-0.5853 -0.462467,-0.770779 -0.132188,-0.220313 -0.347567,-0.386822 -0.462467,-0.616624 -0.06807,-0.136131 -0.06647,-1.4750839 0,-1.5415579 0.143576,-0.143576 0.154155,0.01209 0.154155,-0.308311"
       id="path1506"
       inkscape:connector-curvature="0" />
    <path
       style="opacity:1;fill:none;stroke:#0000b6;stroke-width:3;stroke-linecap:butt;stroke-linejoin:miter;stroke-miterlimit:4;stroke-dasharray:none;stroke-opacity:1"
       d="m 16.340512,3.8123803 c -0.411082,1.1818609 -1.196459,2.2948109 -1.233246,3.5455828 -0.05424,1.844178 1.772435,2.004025 2.928959,2.004025 0.45366,0 0.988224,0.111963 1.387402,-0.154156 0.149807,-0.09987 0.550749,-0.63903 0.616623,-0.770779 0.195046,-0.390091 0.01149,-3.608299 -0.308311,-4.0080497 C 19.094555,3.6322739 17.887148,3.6582245 16.957135,3.6582245"
       id="path1508"
       inkscape:connector-curvature="0" />
    <path
       style="opacity:1;fill:none;stroke:#0000b6;stroke-width:3;stroke-linecap:butt;stroke-linejoin:miter;stroke-miterlimit:4;stroke-dasharray:none;stroke-opacity:1"
       d="M 16.802979,9.9786111 C 12.783414,19.844817 14.599661,21.06016 11.407527,13.678351 10.908639,12.524671 11.223226,12.877426 10.790904,12.445105"
       id="path1510"
       inkscape:connector-curvature="0" />
    <path
       style="opacity:1;fill:none;stroke:#0000b6;stroke-width:3;stroke-linecap:butt;stroke-linejoin:miter;stroke-miterlimit:4;stroke-dasharray:none;stroke-opacity:1"
       d="m 18.036225,10.132767 c 14.709076,6.936255 9.185566,7.899133 10.790904,3.083117"
       id="path1512"
       inkscape:connector-curvature="0" />
  </g>
</svg>
