<?xml version="1.0" encoding="UTF-8" standalone="no"?>
<svg
   xmlns:dc="http://purl.org/dc/elements/1.1/"
   xmlns:cc="http://creativecommons.org/ns#"
   xmlns:rdf="http://www.w3.org/1999/02/22-rdf-syntax-ns#"
   xmlns:svg="http://www.w3.org/2000/svg"
   xmlns="http://www.w3.org/2000/svg"
   xmlns:sodipodi="http://sodipodi.sourceforge.net/DTD/sodipodi-0.dtd"
   xmlns:inkscape="http://www.inkscape.org/namespaces/inkscape"
   width="128"
   height="128"
   viewBox="0 0 33.866666 33.866669"
   version="1.1"
   id="svg839"
   inkscape:export-filename="/Users/keepcalm/Documents/GIT/simple-strategy-game/images/unit red.png"
   inkscape:export-xdpi="78.75"
   inkscape:export-ydpi="78.75"
   sodipodi:docname="unit red.svg"
   inkscape:version="1.0rc1 (09960d6, 2020-04-09)">
  <defs
     id="defs833" />
  <sodipodi:namedview
     id="base"
     pagecolor="#ffffff"
     bordercolor="#666666"
     borderopacity="1.0"
     inkscape:pageopacity="0.0"
     inkscape:pageshadow="2"
     inkscape:zoom="1.7163375"
     inkscape:cx="-2.5134713"
     inkscape:cy="77.202231"
     inkscape:document-units="mm"
     inkscape:current-layer="layer1"
     inkscape:document-rotation="0"
     showgrid="false"
     units="px"
     inkscape:window-width="1440"
     inkscape:window-height="803"
     inkscape:window-x="0"
     inkscape:window-y="23"
     inkscape:window-maximized="0"
     inkscape:snap-others="false"
     inkscape:object-nodes="false"
     inkscape:snap-nodes="false"
     inkscape:snap-global="false" />
  <metadata
     id="metadata836">
    <rdf:RDF>
      <cc:Work
         rdf:about="">
        <dc:format>image/svg+xml</dc:format>
        <dc:type
           rdf:resource="http://purl.org/dc/dcmitype/StillImage" />
        <dc:title />
      </cc:Work>
    </rdf:RDF>
  </metadata>
  <g
     inkscape:label="Слой 1"
     inkscape:groupmode="layer"
     id="layer1"
     style="display:inline;opacity:0.8;mix-blend-mode:normal">
    <path
       style="fill:none;stroke:#8c0000;stroke-width:3;stroke-linecap:butt;stroke-linejoin:miter;stroke-opacity:0.998431;stroke-miterlimit:4;stroke-dasharray:none"
       d="m 9.2493464,29.13544 c 0.048562,-3.355691 0.1043331,-6.227523 1.8498696,-9.09519 0.343019,-0.563531 1.122215,-1.849869 2.004025,-1.849869 1.997483,-0.228251 3.478711,0.415657 5.08714,1.541558 2.719852,1.903896 2.004026,6.017769 2.004026,8.941035"
       id="path1476"
       inkscape:connector-curvature="0" />
    <path
       style="fill:none;stroke:#8c0000;stroke-width:3;stroke-linecap:butt;stroke-linejoin:miter;stroke-opacity:0.998431;stroke-miterlimit:4;stroke-dasharray:none"
       d="m 13.411552,18.498693 c 0.513853,-1.079091 0.966871,-2.189314 1.541558,-3.237271 0.481274,-0.877618 1.273976,-1.910964 1.849869,-2.774804 -0.01539,-0.305392 0.227065,-0.07291 0.308312,-0.154156 0.0546,-0.0546 0,-2.107931 0,-2.312337 0,-0.2054807 0.154162,-1.5415575 -0.154156,-1.5415575"
       id="path1478"
       inkscape:connector-curvature="0" />
    <path
       style="fill:none;stroke:#8c0000;stroke-width:3;stroke-linecap:butt;stroke-linejoin:miter;stroke-opacity:0.998431;stroke-miterlimit:4;stroke-dasharray:none"
       d="m 16.494668,4.3163616 c 1.249271,0.2508682 0.42793,2.5976239 1.387402,3.2372713 0.36475,0.2431669 0.718438,0.4362971 1.07909,0.6166231 0.03682,0.018407 0.688985,-0.072361 0.462467,0.1541557 -0.09846,0.098464 -0.936417,0 -1.07909,0 -0.528787,0 -1.182866,0.085475 -1.695714,0 -0.989377,-0.1648962 -1.631986,-1.7921975 -1.695713,-2.6206481 -0.05123,-0.6660406 -0.10982,-1.3451057 0,-2.004025 0.04828,-0.2896955 1.452546,-0.2149478 1.695713,-0.1541558 0.250219,0.062555 0.776202,0.4678894 0.924935,0.6166231 0.07692,0.07692 0,0.6500735 0,0.7707788"
       id="path1480"
       inkscape:connector-curvature="0" />
    <path
       style="fill:none;stroke:#8c0000;stroke-width:3;stroke-linecap:butt;stroke-linejoin:miter;stroke-opacity:0.998431;stroke-miterlimit:4;stroke-dasharray:none"
       d="m 17.573758,8.7868791 c 6.336738,1.3201539 6.119371,2.3951389 11.099217,0.6166231 0.652957,-0.2331993 0.616622,-0.4001477 0.616622,-0.7707789"
       id="path1482"
       inkscape:connector-curvature="0" />
    <path
       style="fill:none;stroke:#8c0000;stroke-width:3;stroke-linecap:butt;stroke-linejoin:miter;stroke-opacity:0.998431;stroke-miterlimit:4;stroke-dasharray:none"
       d="M 16.802979,8.6327233 C 10.520312,11.067361 12.701143,10.790904 7.7077887,10.790904"
       id="path1484"
       inkscape:connector-curvature="0" />
  </g>
</svg>
